<svg width="46" height="46" viewBox="0 0 46 46" fill="none" xmlns="http://www.w3.org/2000/svg">
<g clip-path="url(#clip0_96_332)">
<path d="M28.469 27.9194C28.7239 27.9235 28.9741 27.8512 29.1876 27.7119C29.4011 27.5726 29.5681 27.3726 29.667 27.1377C29.7659 26.9027 29.7923 26.6436 29.7427 26.3935C29.6932 26.1434 29.57 25.9139 29.389 25.7344L23.0001 19.3456L16.6112 25.7344C16.4019 25.9789 16.2925 26.2933 16.3049 26.6149C16.3173 26.9365 16.4506 27.2415 16.6782 27.4691C16.9058 27.6967 17.2108 27.83 17.5324 27.8424C17.854 27.8548 18.1684 27.7454 18.4129 27.5361L21.7223 24.2778V39.9305C21.7223 40.2694 21.8569 40.5944 22.0966 40.8341C22.3362 41.0737 22.6612 41.2083 23.0001 41.2083C23.339 41.2083 23.664 41.0737 23.9036 40.8341C24.1432 40.5944 24.2779 40.2694 24.2779 39.9305V24.2778L27.5618 27.5617C27.805 27.7962 28.1312 27.9248 28.469 27.9194Z" fill="#0063BF"/>
<path d="M39.5088 17.1733C38.3872 17.3229 37.2476 17.2622 36.1483 16.9944V17.2883L36.046 18.2083L36.8766 18.5917C38.4616 19.3215 39.7503 20.5701 40.5297 22.1314C41.3091 23.6927 41.5325 25.4731 41.1631 27.1786C40.7938 28.884 39.8536 30.4124 38.4981 31.5113C37.1425 32.6101 35.4527 33.2137 33.7077 33.2222H26.8333V35.7778H33.7077C35.8787 35.7673 37.99 35.0658 39.7357 33.775C41.4813 32.4843 42.7707 30.6712 43.417 28.5986C44.0632 26.526 44.0328 24.3014 43.3302 22.2472C42.6275 20.193 41.2891 18.4159 39.5088 17.1733Z" fill="#0063BF"/>
<path d="M4.59999 23.4856C4.62092 20.9554 5.61452 18.5304 7.37488 16.7129C9.13523 14.8955 11.5274 13.825 14.0555 13.7233H14.9117L15.2055 12.9183C15.998 10.86 17.4033 9.09457 19.2314 7.86058C21.0595 6.62659 23.2224 5.98355 25.4278 6.01833C26.5901 6.01895 27.7454 6.19999 28.8522 6.555C28.9526 5.70371 29.1675 4.86988 29.4911 4.07611C28.1749 3.66983 26.8052 3.46309 25.4278 3.46278C22.8494 3.44174 20.32 4.16622 18.1437 5.54904C15.9675 6.93186 14.2372 8.9141 13.1611 11.2572C10.1285 11.5827 7.32105 13.0105 5.27175 15.2695C3.22244 17.5284 2.07398 20.4613 2.04443 23.5111C2.04778 25.1264 2.36947 26.7252 2.99112 28.2162C3.61276 29.7071 4.52215 31.0608 5.66732 32.2001C6.81249 33.3393 8.17096 34.2417 9.66509 34.8556C11.1592 35.4694 12.7597 35.7828 14.375 35.7778H19.1667V33.2222H14.375C11.7902 33.2189 9.31158 32.1932 7.48024 30.369C5.6489 28.5449 4.61348 26.0704 4.59999 23.4856Z" fill="#0063BF"/>
<path d="M38.3332 14.0556C41.8617 14.0556 44.7221 11.1952 44.7221 7.66667C44.7221 4.13818 41.8617 1.27778 38.3332 1.27778C34.8047 1.27778 31.9443 4.13818 31.9443 7.66667C31.9443 11.1952 34.8047 14.0556 38.3332 14.0556Z" fill="#0063BF"/>
</g>
<defs>
<clipPath id="clip0_96_332">
<rect width="46" height="46" fill="white"/>
</clipPath>
</defs>
</svg>
