<svg width="23" height="22" viewBox="0 0 23 22" fill="none" xmlns="http://www.w3.org/2000/svg">
<path d="M4.93602 10.9996L12.7204 18.9993C12.7844 19.0638 12.8351 19.1403 12.8694 19.2245C12.9037 19.3087 12.921 19.3988 12.9203 19.4897C12.9195 19.5806 12.9007 19.6705 12.865 19.7541C12.8293 19.8377 12.7774 19.9134 12.7122 19.9767C12.6471 20.0401 12.57 20.09 12.4855 20.1234C12.4009 20.1568 12.3106 20.1731 12.2197 20.1714C12.1288 20.1697 12.0392 20.1499 11.956 20.1133C11.8728 20.0767 11.7976 20.024 11.7349 19.9581L3.48494 11.479C3.36006 11.3506 3.2902 11.1786 3.2902 10.9996C3.2902 10.8205 3.36006 10.6485 3.48494 10.5201L11.7349 2.04097C11.7976 1.97514 11.8728 1.9224 11.956 1.8858C12.0392 1.8492 12.1288 1.82946 12.2197 1.82773C12.3106 1.826 12.4009 1.84231 12.4855 1.87572C12.57 1.90913 12.6471 1.95897 12.7122 2.02236C12.7774 2.08576 12.8293 2.16145 12.865 2.24504C12.9007 2.32864 12.9195 2.41849 12.9203 2.50939C12.921 2.60029 12.9037 2.69044 12.8694 2.77462C12.8351 2.8588 12.7844 2.93534 12.7204 2.99981L4.93602 10.9996Z" fill="#65798A"/>
</svg>
