<svg width="16" height="16" viewBox="0 0 16 16" fill="none" xmlns="http://www.w3.org/2000/svg">
<path d="M7.9999 1.28571C9.47753 1.28571 10.8946 1.87269 11.9395 2.91754C12.9843 3.96238 13.5713 5.3795 13.5713 6.85713C13.5713 9.21142 11.917 11.7771 8.65132 14.5817C8.46974 14.7377 8.23822 14.8234 7.99883 14.8232C7.75944 14.823 7.52807 14.7369 7.34675 14.5806L7.13075 14.3931C4.00961 11.6617 2.42847 9.15885 2.42847 6.85713C2.42847 5.3795 3.01546 3.96238 4.0603 2.91754C5.10515 1.87269 6.52226 1.28571 7.9999 1.28571ZM7.9999 2.14285C6.74959 2.14285 5.55049 2.63953 4.66639 3.52363C3.78229 4.40773 3.28561 5.60683 3.28561 6.85713C3.28561 8.85828 4.74161 11.164 7.69361 13.7468L7.90675 13.9314C7.93267 13.9537 7.96572 13.966 7.9999 13.966C8.03408 13.966 8.06712 13.9537 8.09304 13.9314C11.1879 11.2731 12.7142 8.9057 12.7142 6.85713C12.7142 6.23805 12.5922 5.62502 12.3553 5.05306C12.1184 4.48109 11.7712 3.96139 11.3334 3.52363C10.8956 3.08587 10.3759 2.73862 9.80398 2.5017C9.23201 2.26479 8.61898 2.14285 7.9999 2.14285ZM7.9999 4.71428C8.56822 4.71428 9.11326 4.94004 9.51513 5.34191C9.91699 5.74377 10.1428 6.28881 10.1428 6.85713C10.1428 7.42545 9.91699 7.9705 9.51513 8.37236C9.11326 8.77423 8.56822 8.99999 7.9999 8.99999C7.43157 8.99999 6.88653 8.77423 6.48467 8.37236C6.0828 7.9705 5.85704 7.42545 5.85704 6.85713C5.85704 6.28881 6.0828 5.74377 6.48467 5.34191C6.88653 4.94004 7.43157 4.71428 7.9999 4.71428ZM7.9999 5.57142C7.6589 5.57142 7.33188 5.70688 7.09076 5.948C6.84964 6.18912 6.71418 6.51614 6.71418 6.85713C6.71418 7.19813 6.84964 7.52515 7.09076 7.76627C7.33188 8.00739 7.6589 8.14285 7.9999 8.14285C8.34089 8.14285 8.66791 8.00739 8.90903 7.76627C9.15015 7.52515 9.28561 7.19813 9.28561 6.85713C9.28561 6.51614 9.15015 6.18912 8.90903 5.948C8.66791 5.70688 8.34089 5.57142 7.9999 5.57142Z" fill="#6B1E6C"/>
</svg>
