<svg width="84" height="84" viewBox="0 0 84 84" fill="none" xmlns="http://www.w3.org/2000/svg">
<circle cx="42" cy="42" r="42" fill="#EDF5FD"/>
<path d="M38.325 46.725L51.0375 34.0125C51.3375 33.7125 51.694 33.5625 52.107 33.5625C52.52 33.5625 52.876 33.7125 53.175 34.0125C53.475 34.3125 53.625 34.669 53.625 35.082C53.625 35.495 53.475 35.851 53.175 36.15L39.375 49.95C39.075 50.25 38.725 50.4 38.325 50.4C37.925 50.4 37.575 50.25 37.275 49.95L30.825 43.5C30.525 43.2 30.381 42.8435 30.393 42.4305C30.405 42.0175 30.5615 41.6615 30.8625 41.3625C31.1625 41.0625 31.519 40.9125 31.932 40.9125C32.345 40.9125 32.701 41.0625 33 41.3625L38.325 46.725Z" fill="#0063BF"/>
</svg>
