<svg width="56" height="56" viewBox="0 0 56 56" fill="none" xmlns="http://www.w3.org/2000/svg">
    <circle cx="28" cy="28" r="28" fill="#0063BF" />
    <path fill-rule="evenodd" clip-rule="evenodd"
        d="M28 38.5C28.1989 38.5 28.3897 38.421 28.5303 38.2803C28.671 38.1397 28.75 37.9489 28.75 37.75V20.0605L33.469 24.781C33.6098 24.9218 33.8008 25.0009 34 25.0009C34.1992 25.0009 34.3902 24.9218 34.531 24.781C34.6718 24.6402 34.7509 24.4492 34.7509 24.25C34.7509 24.0508 34.6718 23.8598 34.531 23.719L28.531 17.719C28.4613 17.6492 28.3786 17.5937 28.2875 17.5559C28.1963 17.5181 28.0987 17.4987 28 17.4987C27.9014 17.4987 27.8037 17.5181 27.7126 17.5559C27.6214 17.5937 27.5387 17.6492 27.469 17.719L21.469 23.719C21.3993 23.7887 21.344 23.8715 21.3062 23.9626C21.2685 24.0537 21.2491 24.1514 21.2491 24.25C21.2491 24.4492 21.3282 24.6402 21.469 24.781C21.6098 24.9218 21.8008 25.0009 22 25.0009C22.1992 25.0009 22.3902 24.9218 22.531 24.781L27.25 20.0605V37.75C27.25 37.9489 27.329 38.1397 27.4697 38.2803C27.6103 38.421 27.8011 38.5 28 38.5Z"
        fill="white" />
</svg>
    